<?xml version="1.0" encoding="utf-8"?>
<!-- Generator: Adobe Illustrator 24.0.0, SVG Export Plug-In . SVG Version: 6.00 Build 0)  -->
<svg version="1.1" id="Capa_1" xmlns="http://www.w3.org/2000/svg" xmlns:xlink="http://www.w3.org/1999/xlink" x="0px" y="0px"
	 viewBox="0 0 108 26" style="enable-background:new 0 0 108 26;" xml:space="preserve">
<style type="text/css">
	.st0{fill-rule:evenodd;clip-rule:evenodd;fill:#3CDDF3;}
	.st1{fill:#FFFFFF;}
</style>
<path class="st0" d="M24.8,15.1c0.1-0.7,0.2-1.4,0.2-2.1c0-6.9-5.6-12.5-12.5-12.5c-4.2,0-7.9,2.1-10.2,5.2c1.3-0.2,2.5-0.1,3.8,0.2
	c3.1,0.8,5.8,3,8,4.8l0.2,0.1c2.3,1.9,4.1,3.5,6.1,4.2C21.7,15.6,23.1,15.8,24.8,15.1z M22.4,20.6c-2.3,3-5.9,4.9-9.9,4.9
	C5.6,25.5,0,19.9,0,13c0-0.4,0-0.7,0-1.1c2.1-1.4,3.6-1.5,4.8-1.2c1.8,0.5,3.6,1.9,6,3.8c0.1,0.1,0.3,0.2,0.4,0.4l0,0
	c2.1,1.7,4.5,3.8,7.4,4.9C19.9,20.3,21.1,20.6,22.4,20.6z"/>
<path class="st1" d="M39.4,20.4c-1.1,0-2.1-0.2-2.9-0.6c-0.8-0.4-1.4-1-1.8-1.7c-0.4-0.7-0.6-1.4-0.6-2.2v-0.2h3.4v0.2
	c0,0.5,0.2,0.9,0.5,1.2c0.4,0.4,0.9,0.5,1.5,0.5c0.6,0,1-0.1,1.3-0.4c0.4-0.3,0.5-0.6,0.5-1.1c0-0.4-0.2-0.7-0.5-1
	c-0.3-0.2-0.7-0.4-1.1-0.5l-1.5-0.3c-1-0.2-1.9-0.6-2.7-1.2s-1.2-1.5-1.2-2.8c0-1.3,0.5-2.3,1.4-3c0.9-0.7,2.1-1.1,3.6-1.1
	c1.1,0,2,0.2,2.8,0.6c0.8,0.4,1.4,0.9,1.8,1.6c0.4,0.6,0.6,1.3,0.6,2v0.1H41v-0.1c0-0.4-0.2-0.8-0.5-1.1C40.2,9.1,39.8,9,39.2,9
	c-0.5,0-0.9,0.1-1.3,0.4c-0.3,0.3-0.5,0.6-0.5,1.1c0,0.4,0.2,0.7,0.5,1c0.3,0.2,0.7,0.4,1.2,0.5l1.7,0.3c1.1,0.2,2,0.7,2.7,1.3
	c0.7,0.6,1.1,1.5,1.1,2.6c0,0.8-0.2,1.6-0.7,2.2c-0.5,0.6-1.1,1.1-1.9,1.5C41.3,20.2,40.4,20.4,39.4,20.4z"/>
<path class="st1" d="M53.8,20.4c-1.1,0-2-0.3-2.7-0.8c-0.6-0.5-1.1-1.1-1.4-1.7h-0.2v7.6h-3.5V6.7h3.5v2.1h0.2
	c0.3-0.6,0.7-1.1,1.4-1.6c0.6-0.5,1.5-0.8,2.7-0.8c1.7,0,3,0.6,3.9,1.9c0.9,1.3,1.4,3,1.4,5.1c0,2.1-0.5,3.8-1.4,5
	C56.8,19.8,55.5,20.4,53.8,20.4z M52.6,17.6c1,0,1.8-0.4,2.2-1.2c0.5-0.8,0.8-1.8,0.8-3c0-1.1-0.3-2.1-0.8-2.9
	c-0.5-0.8-1.2-1.2-2.2-1.2c-1,0-1.7,0.4-2.2,1.2c-0.5,0.8-0.8,1.8-0.8,2.9c0,1.1,0.3,2.1,0.8,2.9C50.8,17.2,51.6,17.6,52.6,17.6z"/>
<path class="st1" d="M66.8,20.4c-1.4,0-2.6-0.3-3.5-0.9c-0.9-0.6-1.7-1.5-2.1-2.5c-0.5-1.1-0.7-2.2-0.7-3.5s0.2-2.4,0.7-3.5
	c0.5-1.1,1.2-1.9,2.1-2.6s2.1-1,3.5-1c1.4,0,2.6,0.3,3.5,1c1,0.6,1.7,1.5,2.1,2.5c0.5,1.1,0.7,2.2,0.7,3.5s-0.2,2.4-0.7,3.5
	c-0.5,1.1-1.2,1.9-2.1,2.5C69.4,20.1,68.2,20.4,66.8,20.4z M66.8,17.5c1,0,1.7-0.4,2.2-1.2c0.5-0.8,0.8-1.8,0.8-3s-0.3-2.2-0.8-2.9
	c-0.5-0.8-1.2-1.2-2.2-1.2s-1.7,0.4-2.2,1.2c-0.5,0.8-0.7,1.7-0.7,2.9s0.2,2.2,0.7,3C65.1,17.2,65.8,17.5,66.8,17.5z"/>
<path class="st1" d="M74.9,6.7h3.5v2.1h0.2c0.2-0.6,0.6-1.1,1.2-1.5C80.3,7,81.1,6.7,82,6.7c0.4,0,0.7,0,0.9,0.1l-0.2,3.2
	c-0.4-0.1-0.9-0.2-1.3-0.2c-1,0-1.8,0.3-2.3,0.8c-0.5,0.5-0.8,1.5-0.8,2.7v6.7h-3.5V6.7z"/>
<path class="st1" d="M88.7,9.5v6c0,0.6,0,1,0.1,1.3c0.1,0.3,0.2,0.5,0.5,0.7c0.3,0.2,0.7,0.3,1.3,0.3c0.4,0,0.7,0,1.1-0.1v2.4
	c-0.2,0-0.5,0.1-1,0.1c-0.5,0.1-0.9,0.1-1.4,0.1c-1.2,0-2.1-0.2-2.8-0.5c-0.6-0.4-1-0.8-1.1-1.4c-0.2-0.6-0.2-1.3-0.2-2.1V9.5h-2.2
	V6.7h2.2V2.4h3.5v4.4h3v2.8H88.7z"/>
<path class="st1" d="M93.8,6.7h3.5v13.5h-3.5V6.7z M95.5,4.4c-0.6,0-1-0.2-1.4-0.6c-0.4-0.4-0.6-0.9-0.6-1.4c0-0.6,0.2-1,0.6-1.4
	c0.4-0.4,0.8-0.6,1.4-0.6c0.6,0,1,0.2,1.4,0.6c0.4,0.4,0.6,0.8,0.6,1.4c0,0.5-0.2,1-0.6,1.4C96.5,4.2,96.1,4.4,95.5,4.4z"/>
<path class="st1" d="M104.7,9.5v6c0,0.6,0,1,0.1,1.3c0.1,0.3,0.2,0.5,0.5,0.7c0.3,0.2,0.7,0.3,1.3,0.3c0.4,0,0.7,0,1.1-0.1v2.4
	c-0.2,0-0.5,0.1-1,0.1c-0.5,0.1-0.9,0.1-1.4,0.1c-1.2,0-2.1-0.2-2.8-0.5c-0.6-0.4-1-0.8-1.1-1.4c-0.2-0.6-0.2-1.3-0.2-2.1V9.5H99
	V6.7h2.2V2.4h3.5v4.4h3v2.8H104.7z"/>
</svg>
